<svg id="Componente_1_1" data-name="Componente 1 – 1" xmlns="http://www.w3.org/2000/svg" width="118" height="105.14" viewBox="0 0 118 105.14">
  <defs>
    <style>
      .cls-1, .cls-9 {
        fill: #fff;
      }

      .cls-1, .cls-11, .cls-12, .cls-2, .cls-3, .cls-6 {
        stroke: #707070;
      }

      .cls-1 {
        stroke-width: 4px;
      }

      .cls-2 {
        fill: #030303;
      }

      .cls-4 {
        fill: #d4b7b7;
      }

      .cls-11, .cls-12, .cls-14, .cls-5, .cls-6 {
        fill: none;
      }

      .cls-5, .cls-7 {
        stroke: #000;
      }

      .cls-5 {
        stroke-width: 2px;
      }

      .cls-11, .cls-6 {
        stroke-linejoin: round;
      }

      .cls-8 {
        fill: #040404;
      }

      .cls-10 {
        fill: #203153;
      }

      .cls-11 {
        stroke-linecap: round;
      }

      .cls-13, .cls-15 {
        stroke: none;
      }

      .cls-15 {
        fill: #707070;
      }
    </style>
  </defs>
  <g id="Elipse_2" data-name="Elipse 2" class="cls-1" transform="translate(14)">
    <ellipse class="cls-13" cx="45" cy="34.5" rx="45" ry="34.5"/>
    <ellipse class="cls-14" cx="45" cy="34.5" rx="43" ry="32.5"/>
  </g>
  <g id="Elipse_3" data-name="Elipse 3" class="cls-2" transform="translate(0 36)">
    <ellipse class="cls-13" cx="18" cy="16.5" rx="18" ry="16.5"/>
    <ellipse class="cls-14" cx="18" cy="16.5" rx="17.5" ry="16"/>
  </g>
  <g id="Elipse_4" data-name="Elipse 4" class="cls-3" transform="translate(82 36)">
    <ellipse class="cls-13" cx="18" cy="16.5" rx="18" ry="16.5"/>
    <ellipse class="cls-14" cx="18" cy="16.5" rx="17.5" ry="16"/>
  </g>
  <g id="Caminho_1" data-name="Caminho 1" class="cls-4" transform="translate(18 8)">
    <path class="cls-13" d="M 41 96.14028930664063 C 36.8883056640625 96.14028930664063 30.2244930267334 92.30194091796875 24.87002754211426 89.21778106689453 C 22.62405395507813 87.92411804199219 20.50263977050781 86.70218658447266 18.86031913757324 85.93645477294922 C 15.75767993927002 84.49058532714844 12.96720027923584 82.05855560302734 10.56621360778809 78.70784759521484 C 8.380399703979492 75.65744018554688 6.51039981842041 71.84355926513672 5.008133411407471 67.37215423583984 C 3.658720016479492 63.35567855834961 2.625213384628296 58.87838363647461 1.936306715011597 54.06466293334961 C 1.323773384094238 49.78449249267578 1 45.26681137084961 1 40.99999618530273 C 1 35.5995979309082 2.057453393936157 30.36126518249512 4.14298677444458 25.43050384521484 C 6.157586574554443 20.66745185852051 9.041879653930664 16.38958549499512 12.71573352813721 12.71573162078857 C 16.38957405090332 9.041877746582031 20.66745376586914 6.157584667205811 25.43049240112305 4.142984867095947 C 30.36125373840332 2.057451248168945 35.59958648681641 0.9999979734420776 41 0.9999979734420776 C 45.16638565063477 0.9999979734420776 49.30074691772461 1.641278028488159 53.28826522827148 2.906024694442749 C 57.16133499145508 4.134478092193604 60.83235931396484 5.929197788238525 64.19937133789063 8.240331649780273 C 67.54164123535156 10.53447818756104 70.51181030273438 13.28714466094971 73.02742767333984 16.42186546325684 C 75.58237457275391 19.60561180114746 77.6146240234375 23.11813163757324 79.06775665283203 26.86185073852539 C 80.76593017578125 31.23386383056641 81 36.24066543579102 81 40.99999618530273 C 81 49.78512954711914 79.37052154541016 59.29706573486328 76.52937316894531 67.09683990478516 C 74.90606689453125 71.55327606201172 72.92214965820313 75.38889312744141 70.63274383544922 78.49711608886719 C 68.12676239013672 81.89938354492188 65.26580047607422 84.40525054931641 62.12930679321289 85.94512176513672 C 60.57696151733398 86.70761108398438 58.61808013916016 87.91864013671875 56.54417419433594 89.20076751708984 C 51.54315948486328 92.29251861572266 45.3192253112793 96.14028930664063 41 96.14028930664063 Z"/>
    <path class="cls-15" d="M 41 2 C 35.73415756225586 2 30.62688446044922 3.030876159667969 25.8200569152832 5.063987731933594 C 21.17620086669922 7.028175354003906 17.00517272949219 9.840499877929688 13.42284393310547 13.42282867431641 C 9.840499877929688 17.00517272949219 7.028167724609375 21.17620086669922 5.063987731933594 25.82004547119141 C 3.030868530273438 30.62687683105469 2 35.73414611816406 2 41 C 2 45.22023010253906 2.320281982421875 49.68893051147461 2.926231384277344 53.92298889160156 C 3.606544494628906 58.67678833007813 4.625930786132813 63.09458923339844 5.956069946289063 67.05367279052734 C 7.426643371582031 71.43077087402344 9.251197814941406 75.15583038330078 11.37905883789063 78.12538909912109 C 13.67868804931641 81.33464050292969 16.33779907226563 83.65766906738281 19.28290176391602 85.03011322021484 C 20.9643440246582 85.81410217285156 23.10392761230469 87.04650115966797 25.36914443969727 88.35125732421875 C 28.06192779541016 89.90229797363281 31.11399841308594 91.66028594970703 33.95804214477539 92.99144744873047 C 37.00441360473633 94.41731262207031 39.37367248535156 95.14028930664063 41 95.14028930664063 C 42.71124267578125 95.14028930664063 45.0496711730957 94.41796112060547 47.95031356811523 92.99338531494141 C 50.6619873046875 91.66160583496094 53.50765991210938 89.90234375 56.01834106445313 88.35018920898438 C 58.11350250244141 87.05491638183594 60.09245681762695 85.83147430419922 61.68858337402344 85.04747009277344 C 68.97347259521484 81.47093200683594 73.26902770996094 73.12561798095703 75.58975982666016 66.75457763671875 C 78.39253234863281 59.06017303466797 80 49.67298889160156 80 41 C 80 36.33797454833984 79.77413940429688 31.44237518310547 78.13552856445313 27.22370147705078 C 76.71941375732422 23.57537078857422 74.7384033203125 20.15168762207031 72.24749755859375 17.04774475097656 C 69.79317474365234 13.98938751220703 66.89500427246094 11.30354309082031 63.63345718383789 9.064804077148438 C 60.34755706787109 6.809341430664063 56.76521301269531 5.057945251464844 52.98593139648438 3.859230041503906 C 49.0963134765625 2.625541687011719 45.06367111206055 2 41 2 M 41 0 C 58.412841796875 0 73.96125793457031 10.94232940673828 80 26.5 C 81.69134521484375 30.85441589355469 82 35.76917266845703 82 41 C 82 57.16745758056641 76.39391326904297 80.05587768554688 62.56999969482422 86.8427734375 C 57.35348510742188 89.40505981445313 47.47621536254883 97.14028930664063 41 97.14028930664063 C 34.81827163696289 97.14028930664063 23.93554306030273 89.40614318847656 18.437744140625 86.8427734375 C 4.681297302246094 80.43212890625 0 57.46194458007813 0 41 C 0 18.35631561279297 18.35632705688477 0 41 0 Z"/>
  </g>
  <line id="Linha_1" data-name="Linha 1" class="cls-5" x2="33" y2="17" transform="translate(18.5 65.5)"/>
  <path id="Caminho_9" data-name="Caminho 9" class="cls-6" d="M538.954,403.432l6.1,5.4,6.029,1.627a24.2,24.2,0,0,0,6.094-1.838,25.252,25.252,0,0,0,5.328-3.632V401.5H540.03" transform="matrix(1, 0.017, -0.017, 1, -484.081, -331.533)"/>
  <g id="Elipse_5" data-name="Elipse 5" class="cls-7" transform="translate(46 78)">
    <circle class="cls-13" cx="3" cy="3" r="3"/>
    <circle class="cls-14" cx="3" cy="3" r="2.5"/>
  </g>
  <path id="Caminho_2" data-name="Caminho 2" d="M568.007,339.876l-13.476,4.973-10.972,7.619-13.715,2.9L507.5,356.75s.437-10.624,6.241-16.874,18.208-12.138,18.208-12.138,12.566-3.238,20.35-2.5c.157.015,8.834,2.457,9.282,2.5C569.307,328.471,568.007,339.876,568.007,339.876Z" transform="translate(-488 -320)"/>
  <path id="Caminho_3" data-name="Caminho 3" class="cls-8" d="M587.75,361.75,576.323,359l-9.573-6.38-4.447-4.89L554.8,337.377l6.2-6.627v-3.369l8.792,3.369,5,3.057,4.284,5.355,5.355,8.568,3.32,8.568v5.451Z" transform="translate(-488 -320)"/>
  <g id="Caminho_4" data-name="Caminho 4" class="cls-9" transform="translate(33 49)">
    <path class="cls-13" d="M 13.05278968811035 8.162781715393066 C 12.24355030059814 8.162781715393066 11.30072021484375 8.069452285766602 10.30253028869629 7.97064208984375 C 9.206689834594727 7.86217212677002 8.073550224304199 7.750001907348633 7 7.750001907348633 C 5.51393985748291 7.750001907348633 3.864130020141602 7.68602180480957 2.895159959793091 7.21149206161499 C 2.092479944229126 6.818391799926758 1.75 6.157011985778809 1.75 5.000001907348633 C 1.75 2.757012128829956 3.074769973754883 2.000002145767212 7 2.000002145767212 C 8.783419609069824 2.000002145767212 10.86421966552734 2.613981962203979 12.56616020202637 3.642401933670044 C 14.24668979644775 4.657892227172852 15.25 5.913072109222412 15.25 7.000001907348633 C 15.25 7.562582015991211 15.08020973205566 8.162781715393066 13.05278968811035 8.162781715393066 Z"/>
    <path class="cls-15" d="M 7 2.500001907348633 C 5.104080200195313 2.500001907348633 3.884110450744629 2.687082290649414 3.160670280456543 3.088742256164551 C 2.687689781188965 3.351362228393555 2.25 3.764662265777588 2.25 5.000001907348633 C 2.25 6.111122131347656 2.595820426940918 6.508162021636963 3.115070343017578 6.762452125549316 C 3.992349624633789 7.192071914672852 5.571229934692383 7.250001907348633 7 7.250001907348633 C 8.098239898681641 7.250001907348633 9.243869781494141 7.363402366638184 10.35177993774414 7.473072052001953 C 11.33733940124512 7.570631980895996 12.26823997497559 7.662781715393066 13.05278968811035 7.662781715393066 C 13.92508029937744 7.662781715393066 14.33716011047363 7.542151927947998 14.52925968170166 7.440961837768555 C 14.64278030395508 7.381161689758301 14.75 7.324682235717773 14.75 7.000001907348633 C 14.75 6.10328197479248 13.81410980224609 4.980701923370361 12.30756950378418 4.070342063903809 C 10.70459938049316 3.10172176361084 8.670849800109863 2.500001907348633 7 2.500001907348633 M 7 1.500001907348633 C 10.86598968505859 1.500001907348633 15.75 4.238572120666504 15.75 7.000001907348633 C 15.75 8.318181991577148 14.63662433624268 8.662782669067383 13.05278778076172 8.662782669067383 C 11.31868934631348 8.662782669067383 9.020536422729492 8.250001907348633 7 8.250001907348633 C 3.134010314941406 8.250001907348633 1.25 7.761422157287598 1.25 5.000001907348633 C 1.25 2.238572120666504 3.134010314941406 1.500001907348633 7 1.500001907348633 Z"/>
  </g>
  <path id="Caminho_10" data-name="Caminho 10" class="cls-10" d="M3,0A3,3,0,1,1,0,3,3,3,0,0,1,3,0Z" transform="translate(38 51)"/>
  <path id="Caminho_5" data-name="Caminho 5" class="cls-11" d="M0,0H4.75L9.5,1l2.25,1.5L14,4" transform="translate(35.5 46.5)"/>
  <g id="Caminho_6" data-name="Caminho 6" class="cls-9" transform="translate(66.012 49)">
    <path class="cls-13" d="M 3.991981506347656 8.16278076171875 C 3.991780519485474 8.16278076171875 3.991653680801392 8.16278076171875 3.991452693939209 8.16278076171875 C 1.923212647438049 8.162691116333008 1.75000262260437 7.562530994415283 1.75000262260437 7.000000953674316 C 1.75000262260437 5.914551258087158 2.770082712173462 4.660070896148682 4.47872257232666 3.644251108169556 C 6.210492610931396 2.614670991897583 8.328152656555176 2.000001192092896 10.14344215393066 2.000001192092896 C 14.13915252685547 2.000001192092896 15.48770236968994 2.75701117515564 15.48770236968994 5.000000953674316 C 15.48770236968994 6.15545129776001 15.13909244537354 6.816421031951904 14.32205295562744 7.210091114044189 C 13.33464241027832 7.685851097106934 11.65563297271729 7.750000953674316 10.14344215393066 7.750000953674316 C 9.053202629089355 7.750000953674316 7.902002811431885 7.862131118774414 6.788702487945557 7.970561027526855 C 5.773870468139648 8.069406509399414 4.815236568450928 8.16278076171875 3.991981506347656 8.16278076171875 Z"/>
    <path class="cls-15" d="M 10.14344215393066 2.500000953674316 C 8.439992904663086 2.500000953674316 6.367312431335449 3.103131294250488 4.734232902526855 4.074030876159668 C 3.201902389526367 4.985031127929688 2.250002861022949 6.106201171875 2.250002861022949 7.000000953674316 C 2.250002861022949 7.298571109771729 2.335832595825195 7.364601135253906 2.477202415466309 7.437870979309082 C 2.765142440795898 7.587110996246338 3.274602890014648 7.66278076171875 3.991432189941406 7.66278076171875 C 4.79044246673584 7.66278076171875 5.737372398376465 7.570561408996582 6.739902496337891 7.472921371459961 C 7.865192413330078 7.363330841064453 9.028802871704102 7.250000953674316 10.14344215393066 7.250000953674316 C 11.59917259216309 7.250000953674316 13.20824241638184 7.191740989685059 14.10501289367676 6.759651184082031 C 14.63484287261963 6.504371166229248 14.98770236968994 6.107430934906006 14.98770236968994 5.000000953674316 C 14.98770236968994 3.768731117248535 14.54168319702148 3.355360984802246 14.05968284606934 3.092061042785645 C 13.32025241851807 2.688131332397461 12.07584190368652 2.500000953674316 10.14344215393066 2.500000953674316 M 10.14344215393066 1.500000953674316 C 14.07281303405762 1.500000953674316 15.98770236968994 2.238571166992188 15.98770236968994 5.000000953674316 C 15.98770236968994 7.761421203613281 14.07281303405762 8.250000953674316 10.14344215393066 8.250000953674316 C 8.089780807495117 8.250000953674316 5.75395393371582 8.662782669067383 3.991428375244141 8.662782669067383 C 2.38162899017334 8.662782669067383 1.250002861022949 8.318181037902832 1.250002861022949 7.000000953674316 C 1.250002861022949 4.238571166992188 6.214072227478027 1.500000953674316 10.14344215393066 1.500000953674316 Z"/>
  </g>
  <path id="Caminho_11" data-name="Caminho 11" class="cls-10" d="M3,0A3,3,0,1,1,0,3,3,3,0,0,1,3,0Z" transform="translate(72 51)"/>
  <path id="Caminho_7" data-name="Caminho 7" class="cls-11" d="M14.23,0H9.4L4.574,1,2.287,2.5,0,4" transform="translate(66.5 46.5)"/>
  <path id="Caminho_8" data-name="Caminho 8" class="cls-12" d="M543.75,380.5c-1.75,8-3,7.25-3,7.25l4,2.25,2-2.25" transform="translate(-486 -317)"/>
</svg>
